<svg xmlns="http://www.w3.org/2000/svg" viewBox="0 0 20 20" fill="none">
  <path
    d="M7.67095 7.21472V5.33148C7.67095 5.17263 7.73032 5.05389 7.86939 4.97473L11.6551 2.79464C12.1707 2.49726 12.7847 2.35873 13.4191 2.35873C15.7976 2.35873 17.3043 4.20239 17.3043 6.16425C17.3043 6.30278 17.3043 6.46164 17.2845 6.61996L13.3597 4.32059C13.1217 4.18207 12.8842 4.18207 12.6462 4.32059L7.67095 7.21472ZM16.5111 14.5487V10.0489C16.5111 9.77135 16.3918 9.57291 16.1544 9.43439L11.1791 6.54026L12.8045 5.60854C12.9431 5.52938 13.0623 5.52938 13.2009 5.60854L16.9866 7.78862C18.0766 8.42297 18.8099 9.77081 18.8099 11.0791C18.8099 12.5852 17.9183 13.9732 16.5106 14.5476L16.5111 14.5487ZM6.50122 10.5843L4.87578 9.63282C4.73725 9.55366 4.67735 9.43439 4.67735 9.27607V4.91536C4.67735 2.79464 6.30278 1.18899 8.5032 1.18899C9.33597 1.18899 10.1088 1.46659 10.763 1.96186L6.85797 4.22165C6.61996 4.36017 6.50122 4.55861 6.50122 4.8362V10.5843ZM9.99973 12.6061L7.67042 11.2978V8.52298L9.99973 7.21472L12.3285 8.52298V11.2978L9.99973 12.6061ZM11.4963 18.6318C10.6635 18.6318 9.89062 18.3542 9.23649 17.859L13.1415 15.5992C13.3795 15.4606 13.4982 15.2622 13.4982 14.9846V9.23649L15.1435 10.188C15.282 10.2672 15.3414 10.3864 15.3414 10.5448V14.9055C15.3414 17.0262 13.6961 18.6318 11.4963 18.6318ZM6.7986 14.2118L3.01286 12.0317C1.92282 11.3973 1.18953 10.0495 1.18953 8.74121C1.18953 7.21472 2.10146 5.84708 3.50868 5.27264V9.79167C3.50868 10.0693 3.62742 10.2677 3.86543 10.4062L8.8209 13.28L7.19546 14.2118C7.05694 14.2909 6.93766 14.2909 6.79913 14.2118H6.7986ZM6.58038 17.4626C4.34038 17.4626 2.69516 15.7778 2.69516 13.6967C2.69516 13.5384 2.71495 13.3795 2.73474 13.2212L6.63975 15.481C6.87776 15.6195 7.11577 15.6195 7.35325 15.481L12.3285 12.6072V14.4904C12.3285 14.6487 12.2691 14.768 12.1301 14.8472L8.34434 17.0278C7.82874 17.3252 7.21472 17.4637 6.58038 17.4637V17.4626ZM11.4963 19.8214C13.8946 19.8214 15.8966 18.1168 16.3528 15.857C18.5725 15.282 20 13.2009 20 11.0801C20 9.69272 19.4052 8.34488 18.335 7.37357C18.4339 6.95745 18.4938 6.5408 18.4938 6.12468C18.4938 3.29045 16.1945 1.1692 13.5384 1.1692C13.0035 1.1692 12.4879 1.24836 11.9723 1.42701C11.0801 0.55465 9.85104 0 8.50373 0C6.10542 0 4.10344 1.7046 3.64721 3.96438C1.42701 4.53935 0 6.62049 0 8.74121C0 10.1286 0.594764 11.4765 1.66502 12.4478C1.56607 12.8639 1.50616 13.2806 1.50616 13.6967C1.50616 16.5309 3.80553 18.6522 6.46164 18.6522C6.9965 18.6522 7.5121 18.573 8.02771 18.3944C8.91985 19.2667 10.1484 19.8214 11.4963 19.8214Z"
    fill="white"
  />
</svg>
